<?xml version="1.0" encoding="utf-8"?>
<!-- Generator: Adobe Illustrator 27.5.0, SVG Export Plug-In . SVG Version: 6.00 Build 0)  -->
<svg version="1.1" id="Layer_1" xmlns="http://www.w3.org/2000/svg" xmlns:xlink="http://www.w3.org/1999/xlink" x="0px" y="0px"
	 viewBox="305.393 278.85 28.417 23.875" style="enable-background:new 305.393 278.85 28.417 23.875;" xml:space="preserve">
<rect x="305.393" y="278.949" style="fill-rule:evenodd;clip-rule:evenodd;fill:#F5F5F5;" width="28.418" height="23.875"/>
<g>
	<defs>
		<filter id="Adobe_OpacityMaskFilter" filterUnits="userSpaceOnUse" x="321.626" y="287.121" width="7.471" height="8.11">
			<feColorMatrix  type="matrix" values="1 0 0 0 0  0 1 0 0 0  0 0 1 0 0  0 0 0 1 0"/>
		</filter>
	</defs>
	<mask maskUnits="userSpaceOnUse" x="321.626" y="287.121" width="7.471" height="8.11" id="SVGID_1_">
		<g style="filter:url(#Adobe_OpacityMaskFilter);">
			
				<linearGradient id="SVGID_00000044142583804299838410000004173048437747079598_" gradientUnits="userSpaceOnUse" x1="357.0854" y1="261.5321" x2="353.02" y2="254.3084" gradientTransform="matrix(-0.2115 0.9583 0.9608 0.2174 152.044 -105.211)">
				<stop  offset="0" style="stop-color:#000000"/>
				<stop  offset="0.0849" style="stop-color:#090909"/>
				<stop  offset="0.2266" style="stop-color:#232323"/>
				<stop  offset="0.4076" style="stop-color:#4D4D4D"/>
				<stop  offset="0.6207" style="stop-color:#878787"/>
				<stop  offset="0.8582" style="stop-color:#D0D0D0"/>
				<stop  offset="1" style="stop-color:#FFFFFF"/>
			</linearGradient>
			<polygon style="fill:url(#SVGID_00000044142583804299838410000004173048437747079598_);" points="330.202,297.155 
				330.434,288.911 320.815,286.399 320.577,294.645 			"/>
		</g>
	</mask>
	<g style="mask:url(#SVGID_1_);">
		<polygon style="fill:#FFFFFF;" points="323.049,287.121 321.626,288.694 327.096,295.231 329.096,291.513 		"/>
		<polygon style="fill:#FCFCFC;" points="323.049,287.121 321.626,288.692 327.074,295.202 329.081,291.539 		"/>
		<polygon style="fill:#F8F8F8;" points="323.049,287.121 321.628,288.69 327.05,295.174 329.064,291.565 		"/>
		<polygon style="fill:#F5F5F5;" points="323.049,287.121 321.629,288.689 327.028,295.145 329.048,291.591 		"/>
		<polygon style="fill:#F2F2F2;" points="323.049,287.121 321.63,288.687 327.004,295.115 329.033,291.616 		"/>
		<polygon style="fill:#EFEFEF;" points="323.049,287.121 321.631,288.685 326.982,295.086 329.016,291.643 		"/>
		<polygon style="fill:#EBEBEB;" points="323.049,287.121 321.633,288.683 326.958,295.058 329.001,291.669 		"/>
		<polygon style="fill:#E8E8E8;" points="323.049,287.121 321.634,288.681 326.936,295.028 328.985,291.694 		"/>
		<polygon style="fill:#E5E5E5;" points="323.049,287.121 321.635,288.679 326.913,294.999 328.969,291.721 		"/>
		<polygon style="fill:#E2E2E2;" points="323.049,287.121 321.637,288.677 326.89,294.971 328.953,291.746 		"/>
		<polygon style="fill:#DEDEDE;" points="323.049,287.121 321.638,288.675 326.867,294.941 328.937,291.773 		"/>
		<polygon style="fill:#DBDBDB;" points="323.049,287.121 321.639,288.673 326.844,294.912 328.921,291.799 		"/>
		<polygon style="fill:#D8D8D8;" points="323.049,287.121 321.64,288.671 326.821,294.883 328.905,291.824 		"/>
		<polygon style="fill:#D5D5D5;" points="323.049,287.121 321.642,288.669 326.798,294.855 328.889,291.851 		"/>
		<polygon style="fill:#D1D1D1;" points="323.049,287.121 321.643,288.667 326.775,294.825 328.874,291.876 		"/>
		<polygon style="fill:#CECECE;" points="323.049,287.121 321.644,288.665 326.752,294.796 328.857,291.902 		"/>
		<polygon style="fill:#CBCBCB;" points="323.049,287.121 321.646,288.663 326.729,294.768 328.841,291.929 		"/>
		<polygon style="fill:#C8C8C8;" points="323.049,287.121 321.647,288.661 326.707,294.738 328.826,291.954 		"/>
		<polygon style="fill:#C4C4C4;" points="323.049,287.121 321.648,288.659 326.683,294.709 328.81,291.98 		"/>
		<polygon style="fill:#C1C1C1;" points="323.049,287.121 321.649,288.657 326.661,294.68 328.794,292.007 		"/>
		<polygon style="fill:#BEBEBE;" points="323.049,287.121 321.651,288.655 326.637,294.651 328.778,292.032 		"/>
		<polygon style="fill:#BBBBBB;" points="323.049,287.121 321.652,288.653 326.615,294.622 328.762,292.059 		"/>
		<polygon style="fill:#B7B7B7;" points="323.049,287.121 321.653,288.651 326.591,294.593 328.746,292.084 		"/>
		<polygon style="fill:#B4B4B4;" points="323.049,287.121 321.655,288.649 326.569,294.565 328.73,292.11 		"/>
		<polygon style="fill:#B1B1B1;" points="323.049,287.121 321.656,288.648 326.545,294.535 328.714,292.137 		"/>
		<polygon style="fill:#AEAEAE;" points="323.049,287.121 321.657,288.646 326.523,294.506 328.698,292.162 		"/>
		<polygon style="fill:#AAAAAA;" points="323.049,287.121 321.658,288.644 326.5,294.477 328.682,292.189 		"/>
		<polygon style="fill:#A7A7A7;" points="323.049,287.121 321.66,288.642 326.477,294.448 328.667,292.214 		"/>
		<polygon style="fill:#A4A4A4;" points="323.049,287.121 321.661,288.64 326.454,294.419 328.651,292.24 		"/>
		<polygon style="fill:#A1A1A1;" points="323.049,287.121 321.662,288.638 326.431,294.39 328.634,292.267 		"/>
		<polygon style="fill:#9D9D9D;" points="323.049,287.121 321.664,288.636 326.408,294.361 328.619,292.292 		"/>
		<polygon style="fill:#9A9A9A;" points="323.049,287.121 321.665,288.634 326.385,294.332 328.603,292.318 		"/>
		<polygon style="fill:#979797;" points="323.049,287.121 321.665,288.632 326.362,294.303 328.586,292.344 		"/>
		<polygon style="fill:#939393;" points="323.049,287.121 321.668,288.629 326.339,294.273 328.571,292.37 		"/>
		<polygon style="fill:#909090;" points="323.049,287.121 321.669,288.627 326.317,294.245 328.555,292.397 		"/>
		<polygon style="fill:#8D8D8D;" points="323.049,287.121 321.669,288.625 326.294,294.216 328.539,292.422 		"/>
		<polygon style="fill:#8A8A8A;" points="323.049,287.121 321.67,288.623 326.271,294.187 328.523,292.448 		"/>
		<polygon style="fill:#868686;" points="323.049,287.121 321.672,288.621 326.248,294.158 328.507,292.474 		"/>
		<polygon style="fill:#838383;" points="323.049,287.121 321.673,288.619 326.225,294.129 328.491,292.5 		"/>
		<polygon style="fill:#808080;" points="323.049,287.121 321.674,288.617 326.202,294.1 328.475,292.526 		"/>
		<polygon style="fill:#7D7D7D;" points="323.049,287.121 321.676,288.615 326.179,294.071 328.46,292.552 		"/>
		<polygon style="fill:#797979;" points="323.049,287.121 321.677,288.613 326.156,294.042 328.444,292.578 		"/>
		<polygon style="fill:#767676;" points="323.049,287.121 321.678,288.611 326.133,294.013 328.427,292.604 		"/>
		<polygon style="fill:#737373;" points="323.049,287.121 321.679,288.609 326.11,293.983 328.412,292.63 		"/>
		<polygon style="fill:#707070;" points="323.049,287.121 321.681,288.607 326.087,293.955 328.396,292.656 		"/>
		<polygon style="fill:#6C6C6C;" points="323.049,287.121 321.682,288.605 326.064,293.926 328.379,292.682 		"/>
		<polygon style="fill:#696969;" points="323.049,287.121 321.683,288.604 326.042,293.897 328.364,292.708 		"/>
		<polygon style="fill:#666666;" points="323.049,287.121 321.685,288.602 326.018,293.868 328.348,292.733 		"/>
		<polygon style="fill:#636363;" points="323.049,287.121 321.686,288.6 325.996,293.839 328.332,292.76 		"/>
		<polygon style="fill:#5F5F5F;" points="323.049,287.121 321.687,288.598 325.972,293.81 328.316,292.786 		"/>
		<polygon style="fill:#5C5C5C;" points="323.049,287.121 321.688,288.596 325.95,293.78 328.3,292.812 		"/>
		<polygon style="fill:#595959;" points="323.049,287.121 321.69,288.594 325.926,293.752 328.285,292.838 		"/>
		<polygon style="fill:#565656;" points="323.049,287.121 321.691,288.592 325.904,293.723 328.268,292.864 		"/>
		<polygon style="fill:#525252;" points="323.049,287.121 321.692,288.59 325.88,293.693 328.252,292.89 		"/>
		<polygon style="fill:#4F4F4F;" points="323.049,287.121 321.694,288.588 325.858,293.665 328.237,292.916 		"/>
		<polygon style="fill:#4C4C4C;" points="323.049,287.121 321.695,288.586 325.835,293.636 328.22,292.941 		"/>
		<polygon style="fill:#494949;" points="323.049,287.121 321.696,288.584 325.812,293.606 328.205,292.968 		"/>
		<polygon style="fill:#454545;" points="323.049,287.121 321.697,288.582 325.789,293.577 328.189,292.994 		"/>
		<polygon style="fill:#424242;" points="323.049,287.121 321.699,288.58 325.766,293.549 328.172,293.02 		"/>
		<polygon style="fill:#3F3F3F;" points="323.049,287.121 321.7,288.578 325.743,293.52 328.157,293.046 		"/>
		<polygon style="fill:#3C3C3C;" points="323.049,287.121 321.701,288.576 325.72,293.49 328.141,293.071 		"/>
		<polygon style="fill:#383838;" points="323.049,287.121 321.703,288.574 325.697,293.462 328.126,293.098 		"/>
		<polygon style="fill:#353535;" points="323.049,287.121 321.704,288.572 325.674,293.433 328.109,293.124 		"/>
		<polygon style="fill:#323232;" points="323.049,287.121 321.705,288.57 325.651,293.403 328.093,293.149 		"/>
		<polygon style="fill:#2F2F2F;" points="323.049,287.121 321.706,288.568 325.628,293.374 328.078,293.176 		"/>
		<polygon style="fill:#2B2B2B;" points="323.049,287.121 321.708,288.566 325.605,293.346 328.061,293.201 		"/>
		<polygon style="fill:#282828;" points="323.049,287.121 321.708,288.565 325.583,293.316 328.045,293.228 		"/>
	</g>
	<defs>
		
			<filter id="Adobe_OpacityMaskFilter_00000015331633570612612660000013602094239160664469_" filterUnits="userSpaceOnUse" x="309.138" y="287.285" width="7.471" height="8.11">
			<feColorMatrix  type="matrix" values="1 0 0 0 0  0 1 0 0 0  0 0 1 0 0  0 0 0 1 0"/>
		</filter>
	</defs>
	
		<mask maskUnits="userSpaceOnUse" x="309.138" y="287.285" width="7.471" height="8.11" id="SVGID_00000060742575166319111600000017873247286599271587_">
		<g style="filter:url(#Adobe_OpacityMaskFilter_00000015331633570612612660000013602094239160664469_);">
			
				<linearGradient id="SVGID_00000008111533322176856110000006665696691175207564_" gradientUnits="userSpaceOnUse" x1="349.6122" y1="295.2285" x2="345.5469" y2="288.0049" gradientTransform="matrix(0.2115 0.9583 -0.9608 0.2174 520.1465 -105.211)">
				<stop  offset="0" style="stop-color:#000000"/>
				<stop  offset="0.0849" style="stop-color:#090909"/>
				<stop  offset="0.2266" style="stop-color:#232323"/>
				<stop  offset="0.4076" style="stop-color:#4D4D4D"/>
				<stop  offset="0.6207" style="stop-color:#878787"/>
				<stop  offset="0.8582" style="stop-color:#D0D0D0"/>
				<stop  offset="1" style="stop-color:#FFFFFF"/>
			</linearGradient>
			<polygon style="fill:url(#SVGID_00000008111533322176856110000006665696691175207564_);" points="308.033,297.319 307.8,289.075 
				317.419,286.564 317.658,294.809 			"/>
		</g>
	</mask>
	<g style="mask:url(#SVGID_00000060742575166319111600000017873247286599271587_);">
		<polygon style="fill:#FFFFFF;" points="315.185,287.285 316.609,288.858 311.138,295.396 309.138,291.677 		"/>
		<polygon style="fill:#FCFCFC;" points="315.185,287.285 316.608,288.856 311.161,295.366 309.154,291.703 		"/>
		<polygon style="fill:#F8F8F8;" points="315.185,287.285 316.606,288.855 311.184,295.338 309.17,291.729 		"/>
		<polygon style="fill:#F5F5F5;" points="315.185,287.285 316.605,288.853 311.207,295.309 309.186,291.755 		"/>
		<polygon style="fill:#F2F2F2;" points="315.185,287.285 316.604,288.851 311.23,295.279 309.202,291.78 		"/>
		<polygon style="fill:#EFEFEF;" points="315.185,287.285 316.603,288.849 311.252,295.25 309.218,291.807 		"/>
		<polygon style="fill:#EBEBEB;" points="315.185,287.285 316.601,288.847 311.276,295.222 309.234,291.833 		"/>
		<polygon style="fill:#E8E8E8;" points="315.185,287.285 316.6,288.845 311.298,295.192 309.25,291.858 		"/>
		<polygon style="fill:#E5E5E5;" points="315.185,287.285 316.599,288.843 311.322,295.163 309.265,291.885 		"/>
		<polygon style="fill:#E2E2E2;" points="315.185,287.285 316.597,288.841 311.344,295.135 309.282,291.91 		"/>
		<polygon style="fill:#DEDEDE;" points="315.185,287.285 316.596,288.839 311.368,295.105 309.297,291.937 		"/>
		<polygon style="fill:#DBDBDB;" points="315.185,287.285 316.595,288.837 311.39,295.076 309.313,291.963 		"/>
		<polygon style="fill:#D8D8D8;" points="315.185,287.285 316.594,288.835 311.414,295.047 309.33,291.988 		"/>
		<polygon style="fill:#D5D5D5;" points="315.185,287.285 316.592,288.833 311.436,295.019 309.345,292.015 		"/>
		<polygon style="fill:#D1D1D1;" points="315.185,287.285 316.591,288.831 311.46,294.989 309.361,292.04 		"/>
		<polygon style="fill:#CECECE;" points="315.185,287.285 316.59,288.829 311.482,294.96 309.377,292.066 		"/>
		<polygon style="fill:#CBCBCB;" points="315.185,287.285 316.588,288.827 311.505,294.932 309.393,292.093 		"/>
		<polygon style="fill:#C8C8C8;" points="315.185,287.285 316.587,288.825 311.528,294.902 309.409,292.118 		"/>
		<polygon style="fill:#C4C4C4;" points="315.185,287.285 316.586,288.823 311.551,294.873 309.424,292.145 		"/>
		<polygon style="fill:#C1C1C1;" points="315.185,287.285 316.585,288.821 311.574,294.844 309.441,292.171 		"/>
		<polygon style="fill:#BEBEBE;" points="315.185,287.285 316.583,288.819 311.597,294.815 309.457,292.196 		"/>
		<polygon style="fill:#BBBBBB;" points="315.185,287.285 316.583,288.817 311.62,294.786 309.472,292.223 		"/>
		<polygon style="fill:#B7B7B7;" points="315.185,287.285 316.582,288.815 311.643,294.757 309.489,292.248 		"/>
		<polygon style="fill:#B4B4B4;" points="315.185,287.285 316.58,288.814 311.665,294.729 309.504,292.274 		"/>
		<polygon style="fill:#B1B1B1;" points="315.185,287.285 316.579,288.812 311.689,294.699 309.52,292.301 		"/>
		<polygon style="fill:#AEAEAE;" points="315.185,287.285 316.578,288.81 311.711,294.67 309.537,292.326 		"/>
		<polygon style="fill:#AAAAAA;" points="315.185,287.285 316.577,288.808 311.735,294.641 309.552,292.353 		"/>
		<polygon style="fill:#A7A7A7;" points="315.185,287.285 316.575,288.806 311.757,294.612 309.568,292.378 		"/>
		<polygon style="fill:#A4A4A4;" points="315.185,287.285 316.574,288.804 311.781,294.583 309.583,292.404 		"/>
		<polygon style="fill:#A1A1A1;" points="315.185,287.285 316.573,288.802 311.803,294.554 309.6,292.431 		"/>
		<polygon style="fill:#9D9D9D;" points="315.185,287.285 316.571,288.8 311.827,294.525 309.616,292.456 		"/>
		<polygon style="fill:#9A9A9A;" points="315.185,287.285 316.57,288.798 311.849,294.496 309.631,292.482 		"/>
		<polygon style="fill:#979797;" points="315.185,287.285 316.569,288.796 311.873,294.467 309.648,292.508 		"/>
		<polygon style="fill:#939393;" points="315.185,287.285 316.567,288.793 311.895,294.438 309.664,292.534 		"/>
		<polygon style="fill:#909090;" points="315.185,287.285 316.566,288.791 311.918,294.409 309.679,292.561 		"/>
		<polygon style="fill:#8D8D8D;" points="315.185,287.285 316.565,288.789 311.941,294.38 309.696,292.586 		"/>
		<polygon style="fill:#8A8A8A;" points="315.185,287.285 316.564,288.787 311.963,294.351 309.711,292.612 		"/>
		<polygon style="fill:#868686;" points="315.185,287.285 316.562,288.785 311.987,294.322 309.727,292.638 		"/>
		<polygon style="fill:#838383;" points="315.185,287.285 316.561,288.783 312.009,294.293 309.744,292.664 		"/>
		<polygon style="fill:#808080;" points="315.185,287.285 316.56,288.781 312.033,294.264 309.759,292.69 		"/>
		<polygon style="fill:#7D7D7D;" points="315.185,287.285 316.558,288.779 312.055,294.235 309.775,292.716 		"/>
		<polygon style="fill:#797979;" points="315.185,287.285 316.557,288.777 312.079,294.206 309.79,292.742 		"/>
		<polygon style="fill:#767676;" points="315.185,287.285 316.556,288.775 312.101,294.177 309.807,292.768 		"/>
		<polygon style="fill:#737373;" points="315.185,287.285 316.555,288.773 312.125,294.148 309.823,292.794 		"/>
		<polygon style="fill:#707070;" points="315.185,287.285 316.553,288.772 312.147,294.119 309.838,292.82 		"/>
		<polygon style="fill:#6C6C6C;" points="315.185,287.285 316.552,288.77 312.17,294.09 309.855,292.846 		"/>
		<polygon style="fill:#696969;" points="315.185,287.285 316.551,288.768 312.193,294.061 309.871,292.872 		"/>
		<polygon style="fill:#666666;" points="315.185,287.285 316.549,288.766 312.216,294.032 309.886,292.898 		"/>
		<polygon style="fill:#636363;" points="315.185,287.285 316.548,288.764 312.239,294.003 309.903,292.924 		"/>
		<polygon style="fill:#5F5F5F;" points="315.185,287.285 316.547,288.762 312.262,293.974 309.919,292.95 		"/>
		<polygon style="fill:#5C5C5C;" points="315.185,287.285 316.546,288.76 312.285,293.944 309.934,292.976 		"/>
		<polygon style="fill:#595959;" points="315.185,287.285 316.544,288.758 312.308,293.916 309.95,293.002 		"/>
		<polygon style="fill:#565656;" points="315.185,287.285 316.544,288.756 312.331,293.887 309.966,293.028 		"/>
		<polygon style="fill:#525252;" points="315.185,287.285 316.543,288.754 312.354,293.857 309.982,293.054 		"/>
		<polygon style="fill:#4F4F4F;" points="315.185,287.285 316.54,288.752 312.376,293.829 309.998,293.08 		"/>
		<polygon style="fill:#4C4C4C;" points="315.185,287.285 316.54,288.75 312.4,293.8 310.014,293.105 		"/>
		<polygon style="fill:#494949;" points="315.185,287.285 316.539,288.748 312.422,293.771 310.03,293.132 		"/>
		<polygon style="fill:#454545;" points="315.185,287.285 316.538,288.746 312.446,293.741 310.045,293.158 		"/>
		<polygon style="fill:#424242;" points="315.185,287.285 316.536,288.744 312.468,293.713 310.062,293.184 		"/>
		<polygon style="fill:#3F3F3F;" points="315.185,287.285 316.535,288.742 312.492,293.684 310.078,293.21 		"/>
		<polygon style="fill:#3C3C3C;" points="315.185,287.285 316.534,288.74 312.514,293.654 310.093,293.235 		"/>
		<polygon style="fill:#383838;" points="315.185,287.285 316.532,288.738 312.538,293.626 310.109,293.262 		"/>
		<polygon style="fill:#353535;" points="315.185,287.285 316.531,288.736 312.56,293.597 310.126,293.288 		"/>
		<polygon style="fill:#323232;" points="315.185,287.285 316.53,288.734 312.583,293.567 310.141,293.314 		"/>
		<polygon style="fill:#2F2F2F;" points="315.185,287.285 316.529,288.732 312.606,293.538 310.157,293.34 		"/>
		<polygon style="fill:#2B2B2B;" points="315.185,287.285 316.527,288.73 312.629,293.51 310.173,293.365 		"/>
		<polygon style="fill:#282828;" points="315.185,287.285 316.526,288.729 312.652,293.48 310.189,293.392 		"/>
	</g>
	<g>
		<path style="fill-rule:evenodd;clip-rule:evenodd;fill:#9B1F31;" d="M314.819,287.678l-3.75,5.519
			c-0.69,1.121,2.309,1.152,3.102,0l2.199-3.239L314.819,287.678z"/>
		<defs>
			
				<filter id="Adobe_OpacityMaskFilter_00000021813318148992452910000016104442706811943854_" filterUnits="userSpaceOnUse" x="310.507" y="288.772" width="4.567" height="6.141">
				<feColorMatrix  type="matrix" values="1 0 0 0 0  0 1 0 0 0  0 0 1 0 0  0 0 0 1 0"/>
			</filter>
		</defs>
		
			<mask maskUnits="userSpaceOnUse" x="310.507" y="288.772" width="4.567" height="6.141" id="SVGID_00000000224368369140665180000015356093286301860004_">
			<g style="filter:url(#Adobe_OpacityMaskFilter_00000021813318148992452910000016104442706811943854_);">
				
					<linearGradient id="SVGID_00000106116894588425508180000000025883933250608553_" gradientUnits="userSpaceOnUse" x1="388.6021" y1="278.7999" x2="385.3997" y2="273.1097" gradientTransform="matrix(-0.9765 0.098 0.0932 0.9807 664.8198 -17.5023)">
					<stop  offset="0" style="stop-color:#000000"/>
					<stop  offset="0.0849" style="stop-color:#090909"/>
					<stop  offset="0.2266" style="stop-color:#232323"/>
					<stop  offset="0.4076" style="stop-color:#4D4D4D"/>
					<stop  offset="0.6207" style="stop-color:#878787"/>
					<stop  offset="0.8582" style="stop-color:#D0D0D0"/>
					<stop  offset="1" style="stop-color:#FFFFFF"/>
				</linearGradient>
				<polygon style="fill:url(#SVGID_00000106116894588425508180000000025883933250608553_);" points="309.446,296.612 
					315.67,294.761 315.188,286.943 308.958,288.79 				"/>
			</g>
		</mask>
		<g style="mask:url(#SVGID_00000000224368369140665180000015356093286301860004_);">
			<path style="fill:#FFFFFF;" d="M315.075,289.636l-0.947-0.864l-3.62,5.378l1.328,0.763c0,0,1.548-2.303,1.607-3.571
				C313.54,289.25,315.075,289.636,315.075,289.636z"/>
			<path style="fill:#FBFBFB;" d="M315.072,289.634l-0.946-0.858l-3.592,5.335l1.302,0.786c0,0,1.531-2.313,1.599-3.568
				C313.545,289.242,315.072,289.634,315.072,289.634z"/>
			<path style="fill:#F6F6F6;" d="M315.069,289.632l-0.945-0.853l-3.563,5.291l1.275,0.811c0,0,1.516-2.323,1.591-3.566
				C313.552,289.232,315.069,289.632,315.069,289.632z"/>
			<path style="fill:#F2F2F2;" d="M315.066,289.631l-0.945-0.847l-3.533,5.247l1.248,0.835c0,0,1.5-2.333,1.583-3.564
				C313.559,289.225,315.066,289.631,315.066,289.631z"/>
			<path style="fill:#EEEEEE;" d="M315.063,289.629l-0.944-0.841l-3.505,5.204l1.222,0.859c0,0,1.483-2.346,1.575-3.563
				C313.567,289.216,315.063,289.629,315.063,289.629z"/>
			<path style="fill:#E9E9E9;" d="M315.06,289.627l-0.943-0.835l-3.477,5.16l1.195,0.884c0,0,1.468-2.355,1.567-3.56
				C313.574,289.207,315.06,289.627,315.06,289.627z"/>
			<path style="fill:#E5E5E5;" d="M315.057,289.625l-0.942-0.829l-3.448,5.117l1.169,0.907c0,0,1.452-2.365,1.56-3.557
				C313.582,289.199,315.057,289.625,315.057,289.625z"/>
			<path style="fill:#E1E1E1;" d="M315.055,289.624l-0.943-0.823l-3.419,5.073l1.142,0.932c0,0,1.437-2.376,1.552-3.555
				C313.588,289.19,315.055,289.624,315.055,289.624z"/>
			<path style="fill:#DDDDDD;" d="M315.052,289.622l-0.942-0.817l-3.39,5.029l1.115,0.956c0,0,1.421-2.387,1.544-3.552
				C313.596,289.181,315.052,289.622,315.052,289.622z"/>
			<path style="fill:#D8D8D8;" d="M315.049,289.62l-0.941-0.811l-3.361,4.986l1.089,0.979c0,0,1.406-2.397,1.536-3.549
				C313.604,289.173,315.049,289.62,315.049,289.62z"/>
			<path style="fill:#D4D4D4;" d="M315.046,289.618l-0.94-0.806l-3.333,4.943l1.063,1.004c0,0,1.391-2.408,1.528-3.547
				C313.612,289.163,315.046,289.618,315.046,289.618z"/>
			<path style="fill:#D0D0D0;" d="M315.044,289.616l-0.941-0.8l-3.304,4.899l1.036,1.028c0,0,1.376-2.419,1.521-3.545
				C313.619,289.154,315.044,289.616,315.044,289.616z"/>
			<path style="fill:#CBCBCB;" d="M315.04,289.615l-0.939-0.794l-3.275,4.855l1.01,1.053c0,0,1.36-2.43,1.513-3.543
				C313.627,289.146,315.04,289.615,315.04,289.615z"/>
			<path style="fill:#C7C7C7;" d="M315.038,289.613l-0.939-0.788l-3.246,4.813l0.982,1.076c0,0,1.345-2.439,1.504-3.54
				C313.634,289.136,315.038,289.613,315.038,289.613z"/>
			<path style="fill:#C3C3C3;" d="M315.035,289.611l-0.938-0.782l-3.218,4.769l0.956,1.1c0,0,1.33-2.45,1.496-3.537
				C313.642,289.128,315.035,289.611,315.035,289.611z"/>
			<path style="fill:#BEBEBE;" d="M315.032,289.609l-0.938-0.776l-3.188,4.726l0.93,1.125c0,0,1.316-2.461,1.488-3.535
				C313.651,289.118,315.032,289.609,315.032,289.609z"/>
			<path style="fill:#BABABA;" d="M315.029,289.608l-0.937-0.77l-3.16,4.682l0.903,1.148c0,0,1.301-2.473,1.48-3.532
				C313.66,289.109,315.029,289.608,315.029,289.608z"/>
			<path style="fill:#B6B6B6;" d="M315.026,289.606l-0.936-0.765l-3.132,4.638l0.877,1.173c0,0,1.286-2.482,1.473-3.529
				C313.669,289.101,315.026,289.606,315.026,289.606z"/>
			<path style="fill:#B2B2B2;" d="M315.023,289.605l-0.934-0.759l-3.103,4.595l0.85,1.197c0,0,1.272-2.493,1.465-3.528
				C313.677,289.091,315.023,289.605,315.023,289.605z"/>
			<path style="fill:#ADADAD;" d="M315.021,289.603l-0.936-0.753l-3.073,4.552l0.823,1.221c0,0,1.258-2.504,1.457-3.525
				C313.686,289.082,315.021,289.603,315.021,289.603z"/>
			<path style="fill:#A9A9A9;" d="M315.018,289.601l-0.935-0.747l-3.045,4.508l0.797,1.246c0,0,1.243-2.515,1.449-3.523
				C313.695,289.072,315.018,289.601,315.018,289.601z"/>
			<path style="fill:#A5A5A5;" d="M315.015,289.6l-0.934-0.741l-3.017,4.464l0.77,1.27c0,0,1.23-2.524,1.441-3.52
				C313.705,289.064,315.015,289.6,315.015,289.6z"/>
			<path style="fill:#A0A0A0;" d="M315.012,289.598l-0.933-0.735l-2.988,4.421l0.744,1.293c0,0,1.215-2.536,1.434-3.518
				C313.714,289.055,315.012,289.598,315.012,289.598z"/>
			<path style="fill:#9C9C9C;" d="M315.009,289.596l-0.933-0.729l-2.958,4.377l0.717,1.318c0,0,1.201-2.547,1.426-3.516
				C313.724,289.045,315.009,289.596,315.009,289.596z"/>
			<path style="fill:#989898;" d="M315.006,289.594l-0.932-0.724l-2.93,4.334l0.69,1.342c0,0,1.188-2.557,1.418-3.513
				C313.734,289.037,315.006,289.594,315.006,289.594z"/>
			<path style="fill:#939393;" d="M315.003,289.592l-0.931-0.717l-2.901,4.289l0.664,1.366c0,0,1.174-2.567,1.41-3.511
				C313.745,289.027,315.003,289.592,315.003,289.592z"/>
			<path style="fill:#8F8F8F;" d="M315.001,289.591l-0.93-0.712l-2.873,4.246l0.638,1.391c0,0,1.16-2.578,1.402-3.509
				C313.755,289.019,315.001,289.591,315.001,289.591z"/>
			<path style="fill:#8B8B8B;" d="M314.998,289.589l-0.929-0.706l-2.845,4.203l0.611,1.414c0,0,1.147-2.588,1.395-3.506
				C313.766,289.01,314.998,289.589,314.998,289.589z"/>
			<path style="fill:#878787;" d="M314.995,289.587l-0.929-0.7l-2.814,4.159l0.584,1.44c0,0,1.134-2.599,1.387-3.504
				C313.777,289.001,314.995,289.587,314.995,289.587z"/>
			<path style="fill:#828282;" d="M314.992,289.585l-0.928-0.694l-2.786,4.116l0.558,1.463c0,0,1.12-2.609,1.379-3.501
				C313.788,288.992,314.992,289.585,314.992,289.585z"/>
			<path style="fill:#7E7E7E;" d="M314.989,289.584l-0.927-0.689l-2.758,4.072l0.531,1.486c0,0,1.108-2.62,1.371-3.498
				C313.799,288.983,314.989,289.584,314.989,289.584z"/>
			<path style="fill:#7A7A7A;" d="M314.986,289.582l-0.926-0.683l-2.729,4.028l0.505,1.512c0,0,1.094-2.631,1.363-3.496
				C313.811,288.975,314.986,289.582,314.986,289.582z"/>
			<path style="fill:#757575;" d="M314.984,289.58l-0.927-0.677l-2.7,3.985l0.478,1.535c0,0,1.081-2.641,1.355-3.493
				C313.823,288.967,314.984,289.58,314.984,289.58z"/>
			<path style="fill:#717171;" d="M314.981,289.578l-0.926-0.671l-2.671,3.942l0.451,1.56c0,0,1.068-2.651,1.348-3.492
				C313.835,288.957,314.981,289.578,314.981,289.578z"/>
			<path style="fill:#6D6D6D;" d="M314.978,289.576l-0.925-0.665l-2.643,3.898l0.425,1.584c0,0,1.056-2.661,1.34-3.489
				C313.846,288.949,314.978,289.576,314.978,289.576z"/>
			<path style="fill:#686868;" d="M314.975,289.575l-0.924-0.659l-2.614,3.854l0.398,1.607c0,0,1.043-2.672,1.332-3.486
				C313.859,288.941,314.975,289.575,314.975,289.575z"/>
			<path style="fill:#646464;" d="M314.972,289.573l-0.924-0.653l-2.585,3.811l0.372,1.632c0,0,1.03-2.683,1.324-3.484
				C313.873,288.933,314.972,289.573,314.972,289.573z"/>
			<path style="fill:#606060;" d="M314.969,289.571l-0.923-0.648l-2.557,3.768l0.346,1.656c0,0,1.019-2.691,1.316-3.482
				C313.885,288.925,314.969,289.571,314.969,289.571z"/>
			<path style="fill:#5C5C5C;" d="M314.966,289.569l-0.922-0.642l-2.527,3.725l0.318,1.68c0,0,1.005-2.702,1.308-3.478
				C313.898,288.917,314.966,289.569,314.966,289.569z"/>
			<path style="fill:#575757;" d="M314.963,289.568l-0.921-0.636l-2.499,3.681l0.292,1.704c0,0,0.993-2.712,1.3-3.477
				C313.912,288.909,314.963,289.568,314.963,289.568z"/>
			<path style="fill:#535353;" d="M314.96,289.566l-0.921-0.63l-2.47,3.637l0.266,1.729c0,0,0.98-2.722,1.292-3.475
				C313.924,288.901,314.96,289.566,314.96,289.566z"/>
			<path style="fill:#4F4F4F;" d="M314.958,289.565l-0.92-0.624l-2.441,3.594l0.239,1.753c0,0,0.969-2.733,1.284-3.473
				C313.939,288.894,314.958,289.565,314.958,289.565z"/>
			<path style="fill:#4A4A4A;" d="M314.955,289.563l-0.919-0.618l-2.413,3.551l0.213,1.776c0,0,0.956-2.742,1.276-3.47
				C313.954,288.887,314.955,289.563,314.955,289.563z"/>
			<path style="fill:#464646;" d="M314.952,289.561l-0.918-0.612l-2.384,3.507l0.185,1.801c0,0,0.944-2.752,1.269-3.467
				C313.968,288.881,314.952,289.561,314.952,289.561z"/>
			<path style="fill:#424242;" d="M314.95,289.56l-0.919-0.607l-2.354,3.463l0.159,1.825c0,0,0.933-2.762,1.261-3.465
				C313.984,288.874,314.95,289.56,314.95,289.56z"/>
			<path style="fill:#3D3D3D;" d="M314.947,289.558l-0.918-0.601l-2.326,3.42l0.133,1.849c0,0,0.921-2.771,1.253-3.462
				C313.999,288.867,314.947,289.558,314.947,289.558z"/>
			<path style="fill:#393939;" d="M314.944,289.556l-0.917-0.595l-2.298,3.376l0.106,1.873c0,0,0.909-2.779,1.245-3.459
				C314.015,288.861,314.944,289.556,314.944,289.556z"/>
			<path style="fill:#353535;" d="M314.941,289.554l-0.916-0.589l-2.27,3.333l0.08,1.897c0,0,0.898-2.791,1.237-3.458
				C314.031,288.855,314.941,289.554,314.941,289.554z"/>
			<path style="fill:#313131;" d="M314.938,289.553l-0.916-0.583l-2.239,3.289l0.053,1.921c0,0,0.886-2.8,1.23-3.455
				C314.047,288.851,314.938,289.553,314.938,289.553z"/>
			<path style="fill:#2C2C2C;" d="M314.935,289.551l-0.915-0.577l-2.211,3.245l0.026,1.946c0,0,0.874-2.809,1.222-3.453
				C314.064,288.845,314.935,289.551,314.935,289.551z"/>
			<path style="fill:#282828;" d="M314.932,289.549l-0.914-0.571l-2.183,3.202v1.97c0,0,0.863-2.817,1.214-3.45
				C314.083,288.841,314.932,289.549,314.932,289.549z"/>
		</g>
		<path style="fill-rule:evenodd;clip-rule:evenodd;fill:#F9121D;" d="M314.898,287.556l-3.829,5.641l-0.016,0.031l2.279-3.176
			c0.592-0.821,1.506-0.842,2.078,0l2.137,3.145h2.169l0.317-1.132l-3.057-4.509C316.403,286.715,315.471,286.715,314.898,287.556
			L314.898,287.556z"/>
		<defs>
			
				<filter id="Adobe_OpacityMaskFilter_00000064342337086352702720000002443566982172518543_" filterUnits="userSpaceOnUse" x="317.522" y="288.541" width="3.346" height="4.632">
				<feColorMatrix  type="matrix" values="1 0 0 0 0  0 1 0 0 0  0 0 1 0 0  0 0 0 1 0"/>
			</filter>
		</defs>
		
			<mask maskUnits="userSpaceOnUse" x="317.522" y="288.541" width="3.346" height="4.632" id="SVGID_00000147203780942252770400000017093646661724210835_">
			<g style="filter:url(#Adobe_OpacityMaskFilter_00000064342337086352702720000002443566982172518543_);">
				
					<linearGradient id="SVGID_00000027588500552423695070000004368425942358001298_" gradientUnits="userSpaceOnUse" x1="427.3511" y1="324.389" x2="425.0892" y2="320.3699" gradientTransform="matrix(-0.6296 -0.7527 0.7522 -0.636 344.3034 817.0264)">
					<stop  offset="0" style="stop-color:#000000"/>
					<stop  offset="0.0849" style="stop-color:#090909"/>
					<stop  offset="0.2266" style="stop-color:#232323"/>
					<stop  offset="0.4076" style="stop-color:#4D4D4D"/>
					<stop  offset="0.6207" style="stop-color:#878787"/>
					<stop  offset="0.8582" style="stop-color:#D0D0D0"/>
					<stop  offset="1" style="stop-color:#FFFFFF"/>
				</linearGradient>
				<polygon style="fill:url(#SVGID_00000027588500552423695070000004368425942358001298_);" points="319.585,286.796 
					321.814,290.804 317.71,294.514 315.477,290.504 				"/>
			</g>
		</mask>
		<g style="mask:url(#SVGID_00000147203780942252770400000017093646661724210835_);">
			<polygon style="fill:#FFFFFF;" points="318.974,293.038 317.522,293.173 318.544,288.541 320.868,290.07 			"/>
			<polygon style="fill:#F9F9F9;" points="318.972,293.038 317.524,293.172 318.545,288.585 320.839,290.056 			"/>
			<polygon style="fill:#F4F4F4;" points="318.97,293.038 317.526,293.172 318.546,288.629 320.812,290.042 			"/>
			<polygon style="fill:#EEEEEE;" points="318.968,293.038 317.528,293.171 318.548,288.673 320.784,290.027 			"/>
			<polygon style="fill:#E8E8E8;" points="318.965,293.038 317.53,293.171 318.549,288.717 320.755,290.014 			"/>
			<polygon style="fill:#E3E3E3;" points="318.963,293.038 317.531,293.17 318.551,288.761 320.728,289.999 			"/>
			<polygon style="fill:#DDDDDD;" points="318.961,293.038 317.533,293.17 318.552,288.805 320.7,289.984 			"/>
			<polygon style="fill:#D7D7D7;" points="318.96,293.039 317.535,293.169 318.554,288.849 320.672,289.971 			"/>
			<polygon style="fill:#D2D2D2;" points="318.958,293.039 317.537,293.169 318.556,288.893 320.644,289.956 			"/>
			<polygon style="fill:#CCCCCC;" points="318.956,293.039 317.539,293.168 318.557,288.937 320.616,289.942 			"/>
			<polygon style="fill:#C6C6C6;" points="318.954,293.039 317.54,293.168 318.559,288.981 320.588,289.928 			"/>
			<polygon style="fill:#C1C1C1;" points="318.952,293.039 317.543,293.167 318.56,289.025 320.56,289.913 			"/>
			<polygon style="fill:#BBBBBB;" points="318.949,293.039 317.544,293.167 318.562,289.069 320.532,289.899 			"/>
			<polygon style="fill:#B5B5B5;" points="318.947,293.039 317.546,293.166 318.564,289.113 320.504,289.885 			"/>
			<polygon style="fill:#B0B0B0;" points="318.945,293.039 317.548,293.166 318.565,289.157 320.476,289.871 			"/>
			<polygon style="fill:#AAAAAA;" points="318.943,293.039 317.549,293.165 318.567,289.201 320.449,289.856 			"/>
			<polygon style="fill:#A4A4A4;" points="318.941,293.039 317.551,293.165 318.568,289.245 320.42,289.842 			"/>
			<polygon style="fill:#9F9F9F;" points="318.939,293.039 317.553,293.164 318.57,289.289 320.392,289.828 			"/>
			<polygon style="fill:#999999;" points="318.937,293.039 317.555,293.164 318.571,289.333 320.365,289.814 			"/>
			<polygon style="fill:#949494;" points="318.935,293.039 317.557,293.163 318.573,289.377 320.336,289.8 			"/>
			<polygon style="fill:#8E8E8E;" points="318.932,293.04 317.559,293.162 318.575,289.421 320.308,289.785 			"/>
			<polygon style="fill:#888888;" points="318.93,293.04 317.561,293.162 318.576,289.465 320.281,289.771 			"/>
			<polygon style="fill:#838383;" points="318.928,293.04 317.563,293.161 318.578,289.509 320.252,289.757 			"/>
			<polygon style="fill:#7D7D7D;" points="318.926,293.04 317.565,293.161 318.579,289.553 320.224,289.742 			"/>
			<polygon style="fill:#777777;" points="318.924,293.04 317.566,293.16 318.581,289.597 320.197,289.728 			"/>
			<polygon style="fill:#727272;" points="318.922,293.04 317.568,293.16 318.582,289.641 320.169,289.714 			"/>
			<polygon style="fill:#6C6C6C;" points="318.92,293.04 317.57,293.159 318.583,289.685 320.141,289.699 			"/>
			<polygon style="fill:#666666;" points="318.918,293.04 317.572,293.159 318.585,289.729 320.113,289.686 			"/>
			<polygon style="fill:#616161;" points="318.915,293.04 317.574,293.158 318.586,289.773 320.085,289.671 			"/>
			<polygon style="fill:#5B5B5B;" points="318.914,293.04 317.576,293.158 318.588,289.817 320.057,289.656 			"/>
			<polygon style="fill:#555555;" points="318.912,293.04 317.578,293.157 318.589,289.861 320.029,289.643 			"/>
			<polygon style="fill:#505050;" points="318.91,293.04 317.58,293.157 318.591,289.905 320.001,289.628 			"/>
			<polygon style="fill:#4A4A4A;" points="318.908,293.041 317.582,293.156 318.593,289.949 319.973,289.614 			"/>
			<polygon style="fill:#444444;" points="318.906,293.041 317.583,293.156 318.594,289.993 319.945,289.6 			"/>
			<polygon style="fill:#3F3F3F;" points="318.904,293.041 317.585,293.155 318.596,290.037 319.918,289.585 			"/>
			<polygon style="fill:#393939;" points="318.901,293.041 317.586,293.155 318.597,290.081 319.889,289.571 			"/>
			<polygon style="fill:#333333;" points="318.899,293.041 317.588,293.154 318.599,290.125 319.861,289.557 			"/>
			<polygon style="fill:#2E2E2E;" points="318.897,293.041 317.59,293.154 318.6,290.169 319.833,289.543 			"/>
			<polygon style="fill:#282828;" points="318.895,293.041 317.592,293.153 318.602,290.213 319.805,289.528 			"/>
		</g>
		<polygon style="fill-rule:evenodd;clip-rule:evenodd;fill:#9B1F31;" points="321.295,287.678 317.547,293.196 320.649,293.196 
			322.849,289.957 		"/>
		<defs>
			
				<filter id="Adobe_OpacityMaskFilter_00000016052303198949857320000010837388098942605980_" filterUnits="userSpaceOnUse" x="320.21" y="288.113" width="4.954" height="6.799">
				<feColorMatrix  type="matrix" values="1 0 0 0 0  0 1 0 0 0  0 0 1 0 0  0 0 0 1 0"/>
			</filter>
		</defs>
		
			<mask maskUnits="userSpaceOnUse" x="320.21" y="288.113" width="4.954" height="6.799" id="SVGID_00000068675475012285550400000012715673293002648963_">
			<g style="filter:url(#Adobe_OpacityMaskFilter_00000016052303198949857320000010837388098942605980_);">
				
					<linearGradient id="SVGID_00000164486527105074385210000009246502422285102481_" gradientUnits="userSpaceOnUse" x1="394.0177" y1="278.259" x2="390.8152" y2="272.5686" gradientTransform="matrix(0.9765 0.098 -0.0932 0.9807 -34.8752 -17.5023)">
					<stop  offset="0" style="stop-color:#000000"/>
					<stop  offset="0.0849" style="stop-color:#090909"/>
					<stop  offset="0.2266" style="stop-color:#232323"/>
					<stop  offset="0.4076" style="stop-color:#4D4D4D"/>
					<stop  offset="0.6207" style="stop-color:#878787"/>
					<stop  offset="0.8582" style="stop-color:#D0D0D0"/>
					<stop  offset="1" style="stop-color:#FFFFFF"/>
				</linearGradient>
				<polygon style="fill:url(#SVGID_00000164486527105074385210000009246502422285102481_);" points="325.838,296.612 
					319.613,294.761 320.095,286.943 326.326,288.79 				"/>
			</g>
		</mask>
		<g style="mask:url(#SVGID_00000068675475012285550400000012715673293002648963_);">
			<path style="fill:#FFFFFF;" d="M320.21,289.636l1.401-1.522l3.553,5.701l-1.715,1.098c0,0-1.548-2.303-1.607-3.571
				C321.744,289.25,320.21,289.636,320.21,289.636z"/>
			<path style="fill:#FBFBFB;" d="M320.212,289.634l1.397-1.519l3.522,5.67l-1.684,1.113c0,0-1.535-2.313-1.601-3.569
				C321.734,289.242,320.212,289.634,320.212,289.634z"/>
			<path style="fill:#F7F7F7;" d="M320.214,289.633l1.395-1.517l3.492,5.639l-1.652,1.13c0,0-1.518-2.322-1.593-3.567
				C321.731,289.235,320.214,289.633,320.214,289.633z"/>
			<path style="fill:#F3F3F3;" d="M320.217,289.631l1.391-1.513l3.462,5.607l-1.621,1.145c0,0-1.504-2.33-1.586-3.564
				C321.725,289.227,320.217,289.631,320.217,289.631z"/>
			<path style="fill:#EFEFEF;" d="M320.22,289.63l1.387-1.51l3.432,5.575l-1.59,1.161c0,0-1.49-2.341-1.579-3.563
				C321.718,289.22,320.22,289.63,320.22,289.63z"/>
			<path style="fill:#EBEBEB;" d="M320.222,289.628l1.384-1.507l3.401,5.545l-1.559,1.177c0,0-1.476-2.351-1.572-3.561
				C321.711,289.212,320.222,289.628,320.222,289.628z"/>
			<path style="fill:#E8E8E8;" d="M320.225,289.626l1.38-1.503l3.371,5.513l-1.527,1.193c0,0-1.461-2.36-1.564-3.559
				C321.705,289.203,320.225,289.626,320.225,289.626z"/>
			<path style="fill:#E4E4E4;" d="M320.227,289.625l1.377-1.5l3.342,5.481l-1.497,1.209c0,0-1.447-2.369-1.558-3.557
				C321.699,289.196,320.227,289.625,320.227,289.625z"/>
			<path style="fill:#E0E0E0;" d="M320.23,289.623l1.373-1.497l3.312,5.451l-1.466,1.224c0,0-1.433-2.378-1.551-3.554
				C321.691,289.188,320.23,289.623,320.23,289.623z"/>
			<path style="fill:#DCDCDC;" d="M320.233,289.621l1.369-1.493l3.281,5.419l-1.435,1.24c0,0-1.418-2.389-1.543-3.552
				C321.685,289.179,320.233,289.621,320.233,289.621z"/>
			<path style="fill:#D8D8D8;" d="M320.235,289.62l1.367-1.49l3.25,5.388l-1.403,1.256c0,0-1.404-2.398-1.536-3.549
				C321.677,289.172,320.235,289.62,320.235,289.62z"/>
			<path style="fill:#D4D4D4;" d="M320.238,289.618l1.363-1.487l3.22,5.356l-1.372,1.272c0,0-1.392-2.408-1.529-3.547
				C321.671,289.163,320.238,289.618,320.238,289.618z"/>
			<path style="fill:#D0D0D0;" d="M320.241,289.617l1.359-1.484l3.19,5.325l-1.341,1.288c0,0-1.378-2.418-1.522-3.545
				C321.664,289.156,320.241,289.617,320.241,289.617z"/>
			<path style="fill:#CCCCCC;" d="M320.243,289.615l1.356-1.48l3.159,5.293l-1.31,1.304c0,0-1.363-2.427-1.515-3.542
				C321.657,289.148,320.243,289.615,320.243,289.615z"/>
			<path style="fill:#C8C8C8;" d="M320.246,289.613l1.352-1.478l3.129,5.263l-1.278,1.319c0,0-1.35-2.437-1.508-3.54
				C321.649,289.139,320.246,289.613,320.246,289.613z"/>
			<path style="fill:#C4C4C4;" d="M320.249,289.612l1.349-1.475l3.099,5.23l-1.247,1.336c0,0-1.337-2.446-1.501-3.538
				C321.642,289.131,320.249,289.612,320.249,289.612z"/>
			<path style="fill:#C0C0C0;" d="M320.251,289.61l1.346-1.471l3.068,5.199l-1.216,1.352c0,0-1.323-2.457-1.493-3.536
				C321.635,289.123,320.251,289.61,320.251,289.61z"/>
			<path style="fill:#BDBDBD;" d="M320.253,289.608l1.342-1.468l3.038,5.169l-1.185,1.367c0,0-1.31-2.466-1.486-3.534
				C321.626,289.114,320.253,289.608,320.253,289.608z"/>
			<path style="fill:#B9B9B9;" d="M320.255,289.607l1.339-1.465l3.008,5.137l-1.153,1.383c0,0-1.296-2.475-1.479-3.531
				C321.618,289.106,320.255,289.607,320.255,289.607z"/>
			<path style="fill:#B5B5B5;" d="M320.258,289.605l1.335-1.461l2.978,5.105l-1.122,1.398c0,0-1.282-2.485-1.472-3.529
				C321.611,289.098,320.258,289.605,320.258,289.605z"/>
			<path style="fill:#B1B1B1;" d="M320.261,289.605l1.331-1.459l2.947,5.074l-1.091,1.415c0,0-1.27-2.495-1.465-3.527
				C321.603,289.09,320.261,289.605,320.261,289.605z"/>
			<path style="fill:#ADADAD;" d="M320.263,289.603l1.328-1.455l2.918,5.043l-1.061,1.431c0,0-1.257-2.504-1.458-3.525
				C321.594,289.082,320.263,289.603,320.263,289.603z"/>
			<path style="fill:#A9A9A9;" d="M320.266,289.601l1.324-1.451l2.888,5.011l-1.029,1.447c0,0-1.244-2.515-1.451-3.523
				C321.585,289.073,320.266,289.601,320.266,289.601z"/>
			<path style="fill:#A5A5A5;" d="M320.269,289.6l1.32-1.449l2.857,4.98l-0.998,1.462c0,0-1.23-2.523-1.443-3.521
				C321.578,289.065,320.269,289.6,320.269,289.6z"/>
			<path style="fill:#A1A1A1;" d="M320.271,289.598l1.317-1.445l2.827,4.949l-0.967,1.477c0,0-1.219-2.533-1.436-3.519
				C321.569,289.057,320.271,289.598,320.271,289.598z"/>
			<path style="fill:#9D9D9D;" d="M320.274,289.597l1.314-1.442l2.797,4.917l-0.936,1.494c0,0-1.206-2.544-1.43-3.517
				C321.559,289.049,320.274,289.597,320.274,289.597z"/>
			<path style="fill:#999999;" d="M320.277,289.595l1.31-1.439l2.767,4.887l-0.904,1.51c0,0-1.192-2.553-1.422-3.515
				C321.551,289.04,320.277,289.595,320.277,289.595z"/>
			<path style="fill:#959595;" d="M320.279,289.593l1.307-1.436l2.736,4.855l-0.873,1.526c0,0-1.181-2.563-1.415-3.513
				C321.542,289.032,320.279,289.593,320.279,289.593z"/>
			<path style="fill:#929292;" d="M320.282,289.592l1.304-1.433l2.705,4.823l-0.842,1.541c0,0-1.169-2.571-1.408-3.509
				C321.532,289.024,320.282,289.592,320.282,289.592z"/>
			<path style="fill:#8E8E8E;" d="M320.284,289.59l1.301-1.429l2.675,4.791l-0.811,1.558c0,0-1.156-2.582-1.401-3.507
				C321.521,289.017,320.284,289.59,320.284,289.59z"/>
			<path style="fill:#8A8A8A;" d="M320.287,289.588l1.297-1.426l2.645,4.761l-0.779,1.573c0,0-1.143-2.591-1.393-3.505
				C321.513,289.008,320.287,289.588,320.287,289.588z"/>
			<path style="fill:#868686;" d="M320.29,289.587l1.293-1.423l2.614,4.728l-0.748,1.59c0,0-1.132-2.601-1.387-3.503
				C321.502,289,320.29,289.587,320.29,289.587z"/>
			<path style="fill:#828282;" d="M320.292,289.585l1.29-1.419l2.584,4.697l-0.717,1.605c0,0-1.12-2.61-1.38-3.501
				C321.493,288.992,320.292,289.585,320.292,289.585z"/>
			<path style="fill:#7E7E7E;" d="M320.294,289.584l1.286-1.417l2.554,4.667l-0.686,1.62c0,0-1.107-2.619-1.372-3.498
				C321.483,288.984,320.294,289.584,320.294,289.584z"/>
			<path style="fill:#7A7A7A;" d="M320.297,289.582l1.282-1.413l2.523,4.635l-0.654,1.637c0,0-1.096-2.629-1.365-3.496
				C321.472,288.977,320.297,289.582,320.297,289.582z"/>
			<path style="fill:#767676;" d="M320.299,289.58l1.279-1.409l2.494,4.604l-0.624,1.652c0,0-1.084-2.638-1.358-3.494
				C321.46,288.969,320.299,289.58,320.299,289.58z"/>
			<path style="fill:#727272;" d="M320.302,289.579l1.275-1.407l2.464,4.572l-0.593,1.669c0,0-1.073-2.648-1.352-3.492
				C321.451,288.961,320.302,289.579,320.302,289.579z"/>
			<path style="fill:#6E6E6E;" d="M320.305,289.577l1.271-1.403l2.434,4.541l-0.562,1.685c0,0-1.061-2.658-1.344-3.49
				C321.44,288.953,320.305,289.577,320.305,289.577z"/>
			<path style="fill:#6A6A6A;" d="M320.307,289.576l1.269-1.4l2.403,4.509l-0.53,1.7c0,0-1.05-2.667-1.337-3.487
				C321.428,288.946,320.307,289.576,320.307,289.576z"/>
			<path style="fill:#676767;" d="M320.31,289.574l1.265-1.397l2.373,4.478l-0.499,1.716c0,0-1.038-2.675-1.33-3.485
				C321.415,288.939,320.31,289.574,320.31,289.574z"/>
			<path style="fill:#636363;" d="M320.312,289.572l1.262-1.394l2.343,4.447l-0.468,1.731c0,0-1.025-2.685-1.322-3.483
				C321.405,288.931,320.312,289.572,320.312,289.572z"/>
			<path style="fill:#5F5F5F;" d="M320.315,289.571l1.258-1.391l2.313,4.415l-0.437,1.748c0,0-1.015-2.694-1.315-3.481
				C321.393,288.924,320.315,289.571,320.315,289.571z"/>
			<path style="fill:#5B5B5B;" d="M320.318,289.569l1.254-1.388l2.282,4.385l-0.405,1.764c0,0-1.004-2.704-1.309-3.479
				C321.38,288.917,320.318,289.569,320.318,289.569z"/>
			<path style="fill:#575757;" d="M320.32,289.567l1.251-1.384l2.252,4.352l-0.374,1.779c0,0-0.992-2.713-1.301-3.477
				C321.369,288.909,320.32,289.567,320.32,289.567z"/>
			<path style="fill:#535353;" d="M320.323,289.566l1.247-1.381l2.222,4.321l-0.343,1.795c0,0-0.981-2.721-1.294-3.475
				C321.356,288.903,320.323,289.566,320.323,289.566z"/>
			<path style="fill:#4F4F4F;" d="M320.326,289.565l1.243-1.378l2.191,4.29l-0.312,1.811c0,0-0.971-2.73-1.287-3.473
				C321.343,288.897,320.326,289.565,320.326,289.565z"/>
			<path style="fill:#4B4B4B;" d="M320.328,289.564l1.241-1.375l2.16,4.259l-0.28,1.827c0,0-0.96-2.739-1.28-3.47
				C321.329,288.891,320.328,289.564,320.328,289.564z"/>
			<path style="fill:#474747;" d="M320.331,289.562l1.237-1.371l2.13,4.227l-0.249,1.844c0,0-0.948-2.749-1.272-3.468
				C321.316,288.884,320.331,289.562,320.331,289.562z"/>
			<path style="fill:#434343;" d="M320.333,289.56l1.233-1.368l2.1,4.196l-0.218,1.858c0,0-0.938-2.757-1.266-3.465
				C321.301,288.878,320.333,289.56,320.333,289.56z"/>
			<path style="fill:#3F3F3F;" d="M320.335,289.559l1.23-1.365l2.07,4.165l-0.188,1.874c0,0-0.928-2.766-1.259-3.463
				C321.289,288.872,320.335,289.559,320.335,289.559z"/>
			<path style="fill:#3C3C3C;" d="M320.338,289.557l1.227-1.361l2.04,4.133l-0.156,1.891c0,0-0.916-2.774-1.251-3.461
				C321.275,288.866,320.338,289.557,320.338,289.557z"/>
			<path style="fill:#383838;" d="M320.34,289.555l1.224-1.358l2.01,4.102l-0.125,1.906c0,0-0.905-2.783-1.244-3.459
				C321.259,288.86,320.34,289.555,320.34,289.555z"/>
			<path style="fill:#343434;" d="M320.343,289.554l1.22-1.355l1.98,4.07l-0.094,1.923c0,0-0.895-2.792-1.237-3.457
				C321.244,288.856,320.343,289.554,320.343,289.554z"/>
			<path style="fill:#303030;" d="M320.346,289.552l1.216-1.352l1.949,4.039l-0.063,1.938c0,0-0.885-2.8-1.23-3.454
				C321.23,288.851,320.346,289.552,320.346,289.552z"/>
			<path style="fill:#2C2C2C;" d="M320.348,289.551l1.213-1.35l1.919,4.008l-0.031,1.954c0,0-0.874-2.809-1.223-3.452
				C321.215,288.847,320.348,289.551,320.348,289.551z"/>
			<path style="fill:#282828;" d="M320.351,289.549l1.209-1.346l1.889,3.977v1.97c0,0-0.862-2.817-1.216-3.45
				C321.202,288.841,320.351,289.549,320.351,289.549z"/>
		</g>
		<path style="fill-rule:evenodd;clip-rule:evenodd;fill:#F9121D;" d="M321.377,287.556l-3.83,5.641h0.128l2.134-3.145
			c0.574-0.842,1.507-0.842,2.079,0l1.13,1.669c0.75,1.099,1.196,1.903,2.026,2.148c1.196,0.351,2.945,0.275,2.24-0.673l-3.83-5.641
			C322.881,286.715,321.95,286.715,321.377,287.556L321.377,287.556z"/>
	</g>
</g>
</svg>
